# File created by Blade
# Date/Time:  Wed Jan 28 16:58:26 2015
#---------------------------------------------------------
:version 1.10
:name HOM
:units
  mass 1.0
  length 1.000000
  angle deg
:documentation
     Acclaim Skeleton File
:root
   axis xyz
   order TX TY TZ RX RY RZ
   position 0.000000 0.000000 0.000000
   orientation 0 0 0
:bonedata
   begin
      id 1
      name Spine_dum
      direction 0.000000 1.000000 0.000000
      length 9.621153
      axis 0.0 0.0 0.0 xyz
   end
   begin
      id 2
      name LeftUpLeg_dum
      direction 1.000000 0.000000 0.000000
      length 2.700595
      axis 0.0 0.0 0.0 xyz
   end
   begin
      id 3
      name RightUpLeg_dum
      direction -1.000000 0.000000 0.000000
      length 2.700595
      axis 0.0 0.0 0.0 xyz
   end
   begin
      id 4
      name Spine
      direction 0.000000 1.000000 0.000000
      length 0.000000
      axis 0.0 0.0 0.0 xyz
      dof rx ry rz
   end
   begin
      id 5
      name Spine_dum1
      direction 0.000000 1.000000 0.000000
      length 12.771951
      axis 0.0 0.0 0.0 xyz
   end
   begin
      id 6
      name Spine_dum2
      direction 0.000000 1.000000 0.000000
      length 7.400569
      axis 0.0 0.0 0.0 xyz
   end
   begin
      id 7
      name Spine_dum3
      direction 0.000000 1.000000 0.000000
      length 7.400569
      axis 0.0 0.0 0.0 xyz
   end
   begin
      id 8
      name Head
      direction 0.000000 1.000000 0.000000
      length 4.527550
      axis 0.0 0.0 0.0 xyz
      dof rx ry rz
   end
   begin
      id 9
      name LeftShoulder
      direction 1.000000 0.000000 0.000000
      length 8.349299
      axis 0.0 0.0 -90.0 xyz
      dof rx ry rz
   end
   begin
      id 10
      name LeftArm
      direction 1.000000 0.000000 0.000000
      length 11.334839
      axis 0.0 0.0 -90.0 xyz
      dof rx ry rz
   end
   begin
      id 11
      name LeftForeArm
      direction 1.000000 0.000000 0.000000
      length 9.694182
      axis 0.0 0.0 -90.0 xyz
      dof ry rz rx
   end
   begin
      id 12
      name LeftHand
      direction 0.000000 0.000000 0.000000
      length 0.000000
      axis 0.0 0.0 -90.0 xyz
      dof rx ry rz
   end
   begin
      id 13
      name LeftHand_dum1
      direction 0.000000 0.000000 0.000000
      length 0.000000
      axis 0.0 0.0 -90.0 xyz
   end
   begin
      id 14
      name LeftHand_dum2
      direction 1.000000 0.000000 0.000000
      length 3.937000
      axis 0.0 0.0 -90.0 xyz
   end
   begin
      id 15
      name LeftHandThumb1
      direction 0.000000 0.000000 1.000000
      length 3.937000
      axis 0.0 0.0 -90.0 xyz
      dof rx rz ry
   end
   begin
      id 16
      name RightShoulder
      direction -1.000000 0.000000 0.000000
      length 8.349299
      axis 0.0 0.0 90.0 xyz
      dof rx ry rz
   end
   begin
      id 17
      name RightArm
      direction -1.000000 0.000000 0.000000
      length 11.334839
      axis 0.0 0.0 90.0 xyz
      dof rx ry rz
   end
   begin
      id 18
      name RightForeArm
      direction -1.000000 0.000000 0.000000
      length 9.694182
      axis 0.0 0.0 90.0 xyz
      dof ry rz rx
   end
   begin
      id 19
      name RightHand
      direction 0.000000 0.000000 0.000000
      length 0.000000
      axis 0.0 0.0 90.0 xyz
      dof rx ry rz
   end
   begin
      id 20
      name RightHand_dum1
      direction 0.000000 0.000000 0.000000
      length 0.000000
      axis 0.0 0.0 90.0 xyz
   end
   begin
      id 21
      name RightHand_dum2
      direction -1.000000 0.000000 0.000000
      length 3.937000
      axis 0.0 0.0 90.0 xyz
   end
   begin
      id 22
      name RightHandThumb1
      direction 0.000000 0.000000 1.000000
      length 3.937000
      axis 0.0 0.0 90.0 xyz
      dof rx rz ry
   end
   begin
      id 23
      name LeftUpLeg
      direction 0.000000 -1.000000 0.000000
      length 16.757176
      axis 0.0 0.0 0.0 xyz
      dof rx ry rz
   end
   begin
      id 24
      name LeftLeg
      direction 0.000000 -1.000000 0.000000
      length 16.759153
      axis 0.0 0.0 0.0 xyz
      dof rx ry rz
   end
   begin
      id 25
      name LeftFoot
      direction 0.000000 -0.258819 0.965926
      length 5.841289
      axis 15.0 0.0 0.0 xyz
      dof rx ry rz
   end
   begin
      id 26
      name LeftToeBase
      direction 0.000000 0.000000 1.000000
      length 2.952750
      axis 0.0 0.0 0.0 xyz
      dof rx ry rz
   end
   begin
      id 27
      name RightUpLeg
      direction 0.000000 -1.000000 0.000000
      length 16.757176
      axis 0.0 0.0 0.0 xyz
      dof rx ry rz
   end
   begin
      id 28
      name RightLeg
      direction 0.000000 -1.000000 0.000000
      length 16.759153
      axis 0.0 0.0 0.0 xyz
      dof rx ry rz
   end
   begin
      id 29
      name RightFoot
      direction 0.000000 -0.258819 0.965926
      length 5.841289
      axis 15.0 0.0 0.0 xyz
      dof rx ry rz
   end
   begin
      id 30
      name RightToeBase
      direction 0.000000 0.000000 1.000000
      length 2.952750
      axis 0.0 0.0 0.0 xyz
      dof rx ry rz
   end
:hierarchy
   begin
      root Spine_dum LeftUpLeg_dum RightUpLeg_dum
      Spine_dum Spine
      LeftUpLeg_dum LeftUpLeg
      RightUpLeg_dum RightUpLeg
      Spine Spine_dum1 Spine_dum2 Spine_dum3
      Spine_dum1 Head
      Spine_dum2 LeftShoulder
      Spine_dum3 RightShoulder
      LeftShoulder LeftArm
      LeftArm LeftForeArm
      LeftForeArm LeftHand
      LeftHand LeftHand_dum1 LeftHand_dum2
      LeftHand_dum1 LeftHandThumb1
      RightShoulder RightArm
      RightArm RightForeArm
      RightForeArm RightHand
      RightHand RightHand_dum1 RightHand_dum2
      RightHand_dum1 RightHandThumb1
      LeftUpLeg LeftLeg
      LeftLeg LeftFoot
      LeftFoot LeftToeBase
      RightUpLeg RightLeg
      RightLeg RightFoot
      RightFoot RightToeBase
   end

# File created by Blade
# Date/Time:  Wed Jan 28 16:58:32 2015
# Frame Rate: 120.000 fps
#------------------------------------------------------
:FULLY-SPECIFIED
:DEGREES
3220
root 13.783025 37.142408 -16.805434 198.450490 19.572273 -151.524060
Spine 29.713079 -1.197968 26.816466
Head 13.113361 14.674295 20.585492
LeftShoulder -3.137134 2.967979 20.116771
LeftArm 49.421760 -20.712368 -65.178263
LeftForeArm -17.761555 -0.000000 104.069446
LeftHand -9.716040 -0.000000 24.084770
LeftHandThumb1 -26.253704 0.000000 33.147579
RightShoulder -10.267152 -1.068553 -5.454114
RightArm 27.014958 -20.371733 60.396168
RightForeArm 20.267088 -0.000000 36.085226
RightHand -2.986449 0.000000 5.619356
RightHandThumb1 -24.326973 -0.000000 -32.862282
LeftUpLeg -17.873400 20.773390 17.314317
LeftLeg 15.824145 -0.000000 -0.000000
LeftFoot -10.457062 19.187776 -7.642284
LeftToeBase 8.146672 -0.000000 -0.000000
RightUpLeg -72.541032 7.504490 -1.512861
RightLeg 134.270473 -0.000000 -0.000000
RightFoot 8.599987 -11.005740 6.042730
RightToeBase -0.324907 -0.000000 0.000000
3221
root 13.774967 37.156419 -16.835696 198.834458 19.952191 -151.091611
Spine 29.661517 -1.241814 27.143536
Head 13.290319 14.851189 20.505961
LeftShoulder -3.272640 3.109627 20.085959
LeftArm 48.920463 -20.841868 -65.248703
LeftForeArm -17.968698 -0.000000 104.469667
LeftHand -9.779210 -0.000000 24.138539
LeftHandThumb1 -26.253704 0.000000 33.147579
RightShoulder -10.488461 -1.075462 -5.671132
RightArm 26.887707 -20.056521 60.745961
RightForeArm 19.888049 -0.000000 35.748455
RightHand -2.623672 -0.000000 5.975500
RightHandThumb1 -24.326973 -0.000000 -32.862282
LeftUpLeg -17.913002 20.889700 17.656286
LeftLeg 15.968770 -0.000000 -0.000000
LeftFoot -10.568387 19.444388 -7.784259
LeftToeBase 8.062922 -0.000000 -0.000000
RightUpLeg -72.504011 7.398928 -2.017730
RightLeg 134.638602 -0.000000 -0.000000
RightFoot 8.739870 -11.063200 5.734772
RightToeBase -0.167046 -0.000000 0.000000
3222
root 13.765732 37.168117 -16.867752 199.210879 20.354265 -150.624600
Spine 29.620087 -1.301482 27.491902
Head 13.543094 15.063109 20.426183
LeftShoulder -3.382613 3.228486 20.035573
LeftArm 48.349586 -21.002325 -65.280687
LeftForeArm -18.213167 -0.000000 104.858911
LeftHand -9.799673 -0.000000 24.132521
LeftHandThumb1 -26.253704 0.000000 33.147579
RightShoulder -10.652746 -1.085313 -5.906527
RightArm 26.848903 -19.893489 60.878730
RightForeArm 19.736344 -0.000000 35.310004
RightHand -2.297690 -0.000000 6.061651
RightHandThumb1 -24.326973 -0.000000 -32.862282
LeftUpLeg -17.921291 21.112317 17.992289
LeftLeg 16.106304 -0.000000 -0.000000
LeftFoot -10.746975 19.705470 -7.929780
LeftToeBase 8.098313 -0.000000 -0.000000
RightUpLeg -72.429703 7.295896 -2.425474
RightLeg 134.985623 -0.000000 -0.000000
RightFoot 8.809922 -11.246334 5.293992
RightToeBase -0.039300 -0.000000 0.000000
3223
root 13.747556 37.164963 -16.916294 199.451757 20.809292 -150.310169
Spine 29.633677 -1.429755 27.595515
Head 13.877824 15.315757 20.459780
LeftShoulder -3.479314 3.559697 20.018394
LeftArm 47.896012 -21.315113 -65.353018
LeftForeArm -18.377322 0.000000 105.294673
LeftHand -9.895039 0.000000 24.172701
LeftHandThumb1 -26.253704 0.000000 33.147579
RightShoulder -10.680972 -1.104170 -6.088442
RightArm 26.812285 -19.682799 61.051647
RightForeArm 19.663156 -0.000000 34.783431
RightHand -2.309252 -0.000000 5.416994
RightHandThumb1 -24.326973 -0.000000 -32.862282
LeftUpLeg -17.770167 21.310644 18.155925
LeftLeg 16.133401 -0.000000 -0.000000
LeftFoot -10.982775 20.075195 -7.977266
LeftToeBase 8.160083 -0.000000 -0.000000
RightUpLeg -72.352869 6.880622 -3.410847
RightLeg 135.319390 -0.000000 -0.000000
RightFoot 9.042657 -10.417051 5.412670
RightToeBase -0.224960 -0.000000 0.000000
3224
root 13.742045 37.172519 -16.947028 199.844088 21.216420 -149.803281
Spine 29.581739 -1.515682 27.930726
Head 14.124081 15.533983 20.430153
LeftShoulder -3.622340 3.806194 19.938548
LeftArm 47.444235 -21.523424 -65.422762
LeftForeArm -18.459454 -0.000000 105.674835
LeftHand -9.917040 -0.000000 24.274669
LeftHandThumb1 -26.253704 0.000000 33.147579
RightShoulder -10.641873 -0.985095 -6.336400
RightArm 26.499454 -19.249316 61.412782
RightForeArm 19.209985 0.000000 34.243540
RightHand -2.175253 -0.000000 5.288388
RightHandThumb1 -24.326973 -0.000000 -32.862282
LeftUpLeg -17.783402 21.815701 18.441944
LeftLeg 16.242470 -0.000000 -0.000000
LeftFoot -11.170059 20.242033 -8.035072
LeftToeBase 8.184782 -0.000000 -0.000000
RightUpLeg -72.299364 6.697476 -3.823380
RightLeg 135.607245 -0.000000 -0.000000
RightFoot 8.989774 -10.558893 5.561489
RightToeBase -0.514856 -0.000000 0.000000
3225
root 13.727444 37.174957 -16.985847 200.207189 21.685335 -149.339269
Spine 29.568730 -1.572417 28.221353
Head 14.335087 15.755797 20.357790
LeftShoulder -3.753735 4.097993 19.757528
LeftArm 47.034996 -21.797331 -65.354016
LeftForeArm -18.536459 -0.000000 106.058815
LeftHand -10.024613 -0.000000 24.443238
LeftHandThumb1 -26.253704 0.000000 33.147579
RightShoulder -10.626841 -0.896018 -6.504436
RightArm 26.306811 -18.820980 61.602235
RightForeArm 19.103218 0.000000 33.712644
RightHand -2.321752 -0.000000 4.880898
RightHandThumb1 -24.326973 -0.000000 -32.862282
LeftUpLeg -17.703531 22.306783 18.669244
LeftLeg 16.272931 -0.000000 -0.000000
LeftFoot -11.357087 20.452209 -8.007071
LeftToeBase 8.211811 -0.000000 -0.000000
RightUpLeg -72.230564 6.402051 -4.031453
RightLeg 135.909718 -0.000000 -0.000000
RightFoot 8.932576 -11.286031 5.169358
RightToeBase -0.312275 -0.000000 0.000000
